<?xml version="1.0" encoding="UTF-8" standalone="no"?>
<svg
   xmlns:dc="http://purl.org/dc/elements/1.1/"
   xmlns:cc="http://creativecommons.org/ns#"
   xmlns:rdf="http://www.w3.org/1999/02/22-rdf-syntax-ns#"
   xmlns:svg="http://www.w3.org/2000/svg"
   xmlns="http://www.w3.org/2000/svg"
   width="85"
   height="85"
   viewBox="0 0 300 300"
   id="svg2"
   version="1.1">
  <metadata
     id="metadata15">
    <rdf:RDF>
      <cc:Work
         rdf:about="">
        <dc:format>image/svg+xml</dc:format>
        <dc:type
           rdf:resource="http://purl.org/dc/dcmitype/StillImage" />
        <dc:title></dc:title>
      </cc:Work>
    </rdf:RDF>
  </metadata>
  <defs
     id="defs13" />
  <g
     id="layer1"
     transform="translate(-72.483085,-19.092944)">
    <g
       id="g4160">
      <g
         transform="translate(-203.04066,-93.944187)"
         id="g4369">
        <path
           style="fill:#f43900;fill-opacity:1;fill-rule:evenodd;stroke:#f43900;stroke-width:1px;stroke-linecap:butt;stroke-linejoin:miter;stroke-opacity:1"
           d="m 488.2112,271.42512 c 0,0 9.39488,-27.5408 -11.45562,-42.37721 -22.28711,-15.85863 -89.56213,-28.88602 -187.69139,40.52278 -10.48233,5.9474 -18.18951,3.29483 -4.87,-10.77248 42.58153,-50.64678 257.63805,-117.27544 211.20321,10.10153 -4.72793,8.83375 -9.02391,9.87298 -7.1862,2.52538 z"
           id="path3529" />
        <path
           style="fill:#f43900;fill-opacity:1;fill-rule:evenodd;stroke:#f43900;stroke-width:1px;stroke-linecap:butt;stroke-linejoin:miter;stroke-opacity:1"
           d="m 515.5566,230.60311 c 1.19416,-11.49041 0.36843,-87.24111 -151.3966,-35.22907 -14.30554,5.77418 -9.75479,7.276 -3.03047,5.55584 144.88319,-44.0286 148.19768,20.74835 150.13393,33.20876 0.99154,6.38088 3.25424,2.33644 4.29314,-3.53553 z"
           id="path3535" />
      </g>
      <g
         id="g4154"
         transform="matrix(-1,0,0,-1,649.80604,433.9603)">
        <path
           id="path4156"
           d="m 488.2112,271.42512 c 0,0 9.39488,-27.5408 -11.45562,-42.37721 -22.28711,-15.85863 -89.56213,-28.88602 -187.69139,40.52278 -10.48233,5.9474 -18.18951,3.29483 -4.87,-10.77248 42.58153,-50.64678 257.63805,-117.27544 211.20321,10.10153 -4.72793,8.83375 -9.02391,9.87298 -7.1862,2.52538 z"
           style="fill:#f43900;fill-opacity:1;fill-rule:evenodd;stroke:#f43900;stroke-width:1px;stroke-linecap:butt;stroke-linejoin:miter;stroke-opacity:1" />
        <path
           id="path4158"
           d="m 515.5566,230.60311 c 1.19416,-11.49041 0.36843,-87.24111 -151.3966,-35.22907 -14.30554,5.77418 -9.75479,7.276 -3.03047,5.55584 144.88319,-44.0286 148.19768,20.74835 150.13393,33.20876 0.99154,6.38088 3.25424,2.33644 4.29314,-3.53553 z"
           style="fill:#f43900;fill-opacity:1;fill-rule:evenodd;stroke:#f43900;stroke-width:1px;stroke-linecap:butt;stroke-linejoin:miter;stroke-opacity:1" />
      </g>
    </g>
  </g>
</svg>
