<?xml version="1.0" encoding="UTF-8" standalone="no"?>
<svg
   xmlns:dc="http://purl.org/dc/elements/1.1/"
   xmlns:cc="http://creativecommons.org/ns#"
   xmlns:rdf="http://www.w3.org/1999/02/22-rdf-syntax-ns#"
   xmlns:svg="http://www.w3.org/2000/svg"
   xmlns="http://www.w3.org/2000/svg"
   version="1.1"
   id="svg2"
   viewBox="0 0 539.8174 196.35274"
   height="56"
   width="153">
  <metadata
     id="metadata17">
    <rdf:RDF>
      <cc:Work
         rdf:about="">
        <dc:format>image/svg+xml</dc:format>
        <dc:type
           rdf:resource="http://purl.org/dc/dcmitype/StillImage" />
        <dc:title></dc:title>
      </cc:Work>
    </rdf:RDF>
  </metadata>
  <defs
     id="defs15" />
  <g
     transform="translate(-73.57656,-82.87297)"
     id="layer1">
    <g
       id="g4160">
      <g
         id="g4369"
         transform="translate(-203.04066,-93.944187)">
        <path
           id="path3529"
           d="m 488.2112,271.42512 c 0,0 9.39488,-27.5408 -11.45562,-42.37721 -22.28711,-15.85863 -89.56213,-28.88602 -187.69139,40.52278 -10.48233,5.9474 -18.18951,3.29483 -4.87,-10.77248 42.58153,-50.64678 257.63805,-117.27544 211.20321,10.10153 -4.72793,8.83375 -9.02391,9.87298 -7.1862,2.52538 z"
           style="fill:#f000000;fill-opacity:0.2;fill-rule:evenodd;stroke:#000000;stroke-width:1px;stroke-linecap:butt;stroke-linejoin:miter;stroke-opacity:0.2" />
        <path
           id="path3535"
           d="m 515.5566,230.60311 c 1.19416,-11.49041 0.36843,-87.24111 -151.3966,-35.22907 -14.30554,5.77418 -9.75479,7.276 -3.03047,5.55584 144.88319,-44.0286 148.19768,20.74835 150.13393,33.20876 0.99154,6.38088 3.25424,2.33644 4.29314,-3.53553 z"
           style="fill:#000000;fill-opacity:0.2;fill-rule:evenodd;stroke:#000000;stroke-width:1px;stroke-linecap:butt;stroke-linejoin:miter;stroke-opacity:0.2" />
      </g>
      <text
         xml:space="preserve"
         style="font-style:normal;font-variant:normal;font-weight:normal;font-stretch:normal;font-size:81.25px;line-height:125%;font-family:Sans;-inkscape-font-specification:'Sans, Normal';text-align:start;letter-spacing:0px;word-spacing:0px;writing-mode:lr-tb;text-anchor:start;fill:#000000;fill-opacity:0.2;stroke:#000000;stroke-width:1px;stroke-linecap:butt;stroke-linejoin:miter;stroke-opacity:0.2"
         x="314.15741"
         y="277.5752"
         id="text4401"><tspan
           id="tspan4403"
           x="314.15741"
           y="277.5752">omni4d</tspan></text>
      <g
         transform="matrix(-1,0,0,-1,649.80604,433.9603)"
         id="g4154">
        <path
           style="fill:#000000;fill-opacity:0.2;fill-rule:evenodd;stroke:#000000;stroke-width:1px;stroke-linecap:butt;stroke-linejoin:miter;stroke-opacity:0.2"
           d="m 488.2112,271.42512 c 0,0 9.39488,-27.5408 -11.45562,-42.37721 -22.28711,-15.85863 -89.56213,-28.88602 -187.69139,40.52278 -10.48233,5.9474 -18.18951,3.29483 -4.87,-10.77248 42.58153,-50.64678 257.63805,-117.27544 211.20321,10.10153 -4.72793,8.83375 -9.02391,9.87298 -7.1862,2.52538 z"
           id="path4156" />
        <path
           style="fill:#000000;fill-opacity:0.2;fill-rule:evenodd;stroke:#000000;stroke-width:1px;stroke-linecap:butt;stroke-linejoin:miter;stroke-opacity:0.2"
           d="m 515.5566,230.60311 c 1.19416,-11.49041 0.36843,-87.24111 -151.3966,-35.22907 -14.30554,5.77418 -9.75479,7.276 -3.03047,5.55584 144.88319,-44.0286 148.19768,20.74835 150.13393,33.20876 0.99154,6.38088 3.25424,2.33644 4.29314,-3.53553 z"
           id="path4158" />
      </g>
    </g>
  </g>
</svg>
